<mxfile host="app.diagrams.net" modified="2022-11-03T05:24:23.987Z" agent="5.0 (Windows)" etag="8Ry5MjRLYXp5Zok5osdP" version="20.5.1" type="github">
  <diagram id="4_XCW6oBCm1cpU5HytLm" name="Page-1">
    <mxGraphModel dx="782" dy="392" grid="1" gridSize="3" guides="1" tooltips="1" connect="1" arrows="1" fold="1" page="1" pageScale="1" pageWidth="1600" pageHeight="900" math="0" shadow="0">
      <root>
        <mxCell id="0" />
        <mxCell id="1" parent="0" />
        <mxCell id="Yc7H-iH_WG85VqJQNrEK-73" value="MuleSoft" style="rounded=0;whiteSpace=wrap;html=1;fillColor=#dae8fc;strokeColor=#6c8ebf;verticalAlign=bottom;align=left;horizontal=0;" parent="1" vertex="1">
          <mxGeometry x="404" y="437" width="594" height="60" as="geometry" />
        </mxCell>
        <mxCell id="Yc7H-iH_WG85VqJQNrEK-19" value="" style="endArrow=classic;html=1;rounded=0;fontSize=10;entryX=0.5;entryY=0;entryDx=0;entryDy=0;" parent="1" edge="1">
          <mxGeometry width="50" height="50" relative="1" as="geometry">
            <mxPoint x="740" y="386" as="sourcePoint" />
            <mxPoint x="740" y="432" as="targetPoint" />
          </mxGeometry>
        </mxCell>
        <mxCell id="Yc7H-iH_WG85VqJQNrEK-20" value="" style="endArrow=classic;html=1;rounded=0;fontSize=10;entryX=0.75;entryY=1;entryDx=0;entryDy=0;" parent="1" edge="1">
          <mxGeometry width="50" height="50" relative="1" as="geometry">
            <mxPoint x="766" y="431" as="sourcePoint" />
            <mxPoint x="766" y="383" as="targetPoint" />
          </mxGeometry>
        </mxCell>
        <mxCell id="Yc7H-iH_WG85VqJQNrEK-26" value="Legend" style="text;html=1;strokeColor=none;fillColor=none;align=center;verticalAlign=middle;whiteSpace=wrap;rounded=0;fontSize=10;" parent="1" vertex="1">
          <mxGeometry x="868" y="619" width="60" height="18" as="geometry" />
        </mxCell>
        <mxCell id="Yc7H-iH_WG85VqJQNrEK-27" value="Salesforce platform" style="rounded=0;whiteSpace=wrap;html=1;fillColor=#dae8fc;strokeColor=#6c8ebf;verticalAlign=top;" parent="1" vertex="1">
          <mxGeometry x="411" y="549" width="594" height="60" as="geometry" />
        </mxCell>
        <mxCell id="Yc7H-iH_WG85VqJQNrEK-28" value="&lt;font style=&quot;font-size: 10px;&quot;&gt;Salesforce Connector&lt;/font&gt;" style="rounded=1;whiteSpace=wrap;html=1;fillColor=#dae8fc;strokeColor=#6c8ebf;" parent="1" vertex="1">
          <mxGeometry x="435" y="477" width="120" height="18" as="geometry" />
        </mxCell>
        <mxCell id="Yc7H-iH_WG85VqJQNrEK-30" value="&lt;font style=&quot;font-size: 10px;&quot;&gt;Salesforce Connector&lt;/font&gt;" style="rounded=1;whiteSpace=wrap;html=1;fillColor=#dae8fc;strokeColor=#6c8ebf;" parent="1" vertex="1">
          <mxGeometry x="717" y="477" width="120" height="18" as="geometry" />
        </mxCell>
        <mxCell id="Yc7H-iH_WG85VqJQNrEK-31" value="&lt;font style=&quot;font-size: 10px;&quot;&gt;Salesforce Connector&lt;/font&gt;" style="rounded=1;whiteSpace=wrap;html=1;fillColor=#dae8fc;strokeColor=#6c8ebf;" parent="1" vertex="1">
          <mxGeometry x="852" y="477" width="120" height="18" as="geometry" />
        </mxCell>
        <mxCell id="Yc7H-iH_WG85VqJQNrEK-36" value="" style="endArrow=classic;html=1;rounded=0;fontSize=10;entryX=0.5;entryY=0;entryDx=0;entryDy=0;" parent="1" edge="1">
          <mxGeometry width="50" height="50" relative="1" as="geometry">
            <mxPoint x="885" y="388" as="sourcePoint" />
            <mxPoint x="885" y="434" as="targetPoint" />
          </mxGeometry>
        </mxCell>
        <mxCell id="Yc7H-iH_WG85VqJQNrEK-37" value="" style="endArrow=classic;html=1;rounded=0;fontSize=10;entryX=0.75;entryY=1;entryDx=0;entryDy=0;" parent="1" edge="1">
          <mxGeometry width="50" height="50" relative="1" as="geometry">
            <mxPoint x="911" y="433" as="sourcePoint" />
            <mxPoint x="911" y="385" as="targetPoint" />
          </mxGeometry>
        </mxCell>
        <mxCell id="Yc7H-iH_WG85VqJQNrEK-38" value="" style="endArrow=classic;html=1;rounded=0;fontSize=10;entryX=0.5;entryY=0;entryDx=0;entryDy=0;" parent="1" edge="1">
          <mxGeometry width="50" height="50" relative="1" as="geometry">
            <mxPoint x="616" y="392" as="sourcePoint" />
            <mxPoint x="616" y="438" as="targetPoint" />
          </mxGeometry>
        </mxCell>
        <mxCell id="Yc7H-iH_WG85VqJQNrEK-39" value="" style="endArrow=classic;html=1;rounded=0;fontSize=10;entryX=0.75;entryY=1;entryDx=0;entryDy=0;" parent="1" edge="1">
          <mxGeometry width="50" height="50" relative="1" as="geometry">
            <mxPoint x="642" y="437" as="sourcePoint" />
            <mxPoint x="642" y="389" as="targetPoint" />
          </mxGeometry>
        </mxCell>
        <mxCell id="Yc7H-iH_WG85VqJQNrEK-40" value="" style="endArrow=classic;html=1;rounded=0;fontSize=10;entryX=0.5;entryY=0;entryDx=0;entryDy=0;" parent="1" edge="1">
          <mxGeometry width="50" height="50" relative="1" as="geometry">
            <mxPoint x="488" y="391" as="sourcePoint" />
            <mxPoint x="488" y="437" as="targetPoint" />
          </mxGeometry>
        </mxCell>
        <mxCell id="Yc7H-iH_WG85VqJQNrEK-41" value="" style="endArrow=classic;html=1;rounded=0;fontSize=10;entryX=0.75;entryY=1;entryDx=0;entryDy=0;" parent="1" edge="1">
          <mxGeometry width="50" height="50" relative="1" as="geometry">
            <mxPoint x="514" y="436" as="sourcePoint" />
            <mxPoint x="514" y="388" as="targetPoint" />
          </mxGeometry>
        </mxCell>
        <mxCell id="Yc7H-iH_WG85VqJQNrEK-42" value="External Systems(ERP,PEGA,S3)" style="rounded=0;whiteSpace=wrap;html=1;fillColor=#dae8fc;strokeColor=#6c8ebf;verticalAlign=top;fontSize=11;" parent="1" vertex="1">
          <mxGeometry x="402" y="324" width="594" height="60" as="geometry" />
        </mxCell>
        <mxCell id="Yc7H-iH_WG85VqJQNrEK-44" value="&lt;div&gt;Pega&lt;/div&gt;&lt;div&gt;System&lt;br&gt;&lt;/div&gt;" style="whiteSpace=wrap;html=1;aspect=fixed;fontSize=7;" parent="1" vertex="1">
          <mxGeometry x="474" y="330" width="48" height="48" as="geometry" />
        </mxCell>
        <mxCell id="Yc7H-iH_WG85VqJQNrEK-47" value="" style="endArrow=classic;html=1;rounded=0;fontSize=10;entryX=0.5;entryY=0;entryDx=0;entryDy=0;" parent="1" edge="1">
          <mxGeometry width="50" height="50" relative="1" as="geometry">
            <mxPoint x="476" y="499" as="sourcePoint" />
            <mxPoint x="476" y="545" as="targetPoint" />
          </mxGeometry>
        </mxCell>
        <mxCell id="Yc7H-iH_WG85VqJQNrEK-48" value="" style="endArrow=classic;html=1;rounded=0;fontSize=10;entryX=0.75;entryY=1;entryDx=0;entryDy=0;" parent="1" edge="1">
          <mxGeometry width="50" height="50" relative="1" as="geometry">
            <mxPoint x="502" y="544" as="sourcePoint" />
            <mxPoint x="502" y="496" as="targetPoint" />
          </mxGeometry>
        </mxCell>
        <mxCell id="Yc7H-iH_WG85VqJQNrEK-49" value="" style="endArrow=classic;html=1;rounded=0;fontSize=10;entryX=0.5;entryY=0;entryDx=0;entryDy=0;" parent="1" edge="1">
          <mxGeometry width="50" height="50" relative="1" as="geometry">
            <mxPoint x="611.5" y="501" as="sourcePoint" />
            <mxPoint x="611.5" y="547" as="targetPoint" />
          </mxGeometry>
        </mxCell>
        <mxCell id="Yc7H-iH_WG85VqJQNrEK-50" value="" style="endArrow=classic;html=1;rounded=0;fontSize=10;entryX=0.75;entryY=1;entryDx=0;entryDy=0;" parent="1" edge="1">
          <mxGeometry width="50" height="50" relative="1" as="geometry">
            <mxPoint x="648" y="552" as="sourcePoint" />
            <mxPoint x="648" y="504" as="targetPoint" />
          </mxGeometry>
        </mxCell>
        <mxCell id="Yc7H-iH_WG85VqJQNrEK-51" value="" style="endArrow=classic;html=1;rounded=0;fontSize=10;entryX=0.5;entryY=0;entryDx=0;entryDy=0;" parent="1" edge="1">
          <mxGeometry width="50" height="50" relative="1" as="geometry">
            <mxPoint x="802" y="502" as="sourcePoint" />
            <mxPoint x="802" y="548" as="targetPoint" />
          </mxGeometry>
        </mxCell>
        <mxCell id="Yc7H-iH_WG85VqJQNrEK-52" value="" style="endArrow=classic;html=1;rounded=0;fontSize=10;entryX=0.5;entryY=0;entryDx=0;entryDy=0;" parent="1" edge="1">
          <mxGeometry width="50" height="50" relative="1" as="geometry">
            <mxPoint x="910" y="500" as="sourcePoint" />
            <mxPoint x="910" y="546" as="targetPoint" />
          </mxGeometry>
        </mxCell>
        <mxCell id="Yc7H-iH_WG85VqJQNrEK-57" value="" style="aspect=fixed;html=1;points=[];align=center;image;fontSize=12;image=img/lib/azure2/general/Files.svg;" parent="1" vertex="1">
          <mxGeometry x="879.26" y="336" width="37.49" height="41" as="geometry" />
        </mxCell>
        <mxCell id="Yc7H-iH_WG85VqJQNrEK-62" value="" style="endArrow=classic;html=1;rounded=0;fontSize=10;entryX=0.75;entryY=1;entryDx=0;entryDy=0;" parent="1" edge="1">
          <mxGeometry width="50" height="50" relative="1" as="geometry">
            <mxPoint x="829" y="546" as="sourcePoint" />
            <mxPoint x="829" y="498" as="targetPoint" />
          </mxGeometry>
        </mxCell>
        <mxCell id="Yc7H-iH_WG85VqJQNrEK-74" value="Pega Connector" style="rounded=1;whiteSpace=wrap;html=1;fillColor=#dae8fc;strokeColor=#6c8ebf;" parent="1" vertex="1">
          <mxGeometry x="441" y="437" width="120" height="18" as="geometry" />
        </mxCell>
        <mxCell id="Yc7H-iH_WG85VqJQNrEK-75" value="DB Connector" style="rounded=1;whiteSpace=wrap;html=1;fillColor=#dae8fc;strokeColor=#6c8ebf;" parent="1" vertex="1">
          <mxGeometry x="582" y="439" width="120" height="18" as="geometry" />
        </mxCell>
        <mxCell id="Yc7H-iH_WG85VqJQNrEK-76" value="DB Connector" style="rounded=1;whiteSpace=wrap;html=1;fillColor=#dae8fc;strokeColor=#6c8ebf;" parent="1" vertex="1">
          <mxGeometry x="699" y="437" width="120" height="18" as="geometry" />
        </mxCell>
        <mxCell id="Yc7H-iH_WG85VqJQNrEK-77" value="SFTP Connector" style="rounded=1;whiteSpace=wrap;html=1;fillColor=#dae8fc;strokeColor=#6c8ebf;" parent="1" vertex="1">
          <mxGeometry x="846" y="437" width="120" height="18" as="geometry" />
        </mxCell>
        <mxCell id="Yc7H-iH_WG85VqJQNrEK-78" value="" style="strokeWidth=2;outlineConnect=0;dashed=0;align=center;fontSize=8;fillColor=#c0f5a9;verticalLabelPosition=bottom;verticalAlign=top;shape=mxgraph.eip.content_enricher;" parent="1" vertex="1">
          <mxGeometry x="552" y="459.5" width="36" height="15" as="geometry" />
        </mxCell>
        <mxCell id="Yc7H-iH_WG85VqJQNrEK-79" value="" style="strokeWidth=2;outlineConnect=0;dashed=0;align=center;fontSize=8;shape=mxgraph.eip.message_translator;fillColor=#c0f5a9;verticalLabelPosition=bottom;verticalAlign=top;" parent="1" vertex="1">
          <mxGeometry x="690" y="459" width="36" height="16" as="geometry" />
        </mxCell>
        <mxCell id="Yc7H-iH_WG85VqJQNrEK-80" value="" style="strokeWidth=2;outlineConnect=0;dashed=0;align=center;fontSize=8;fillColor=#c0f5a9;verticalLabelPosition=bottom;verticalAlign=top;shape=mxgraph.eip.normalizer;" parent="1" vertex="1">
          <mxGeometry x="813" y="457" width="30" height="18" as="geometry" />
        </mxCell>
        <mxCell id="Yc7H-iH_WG85VqJQNrEK-84" value="" style="strokeWidth=2;outlineConnect=0;dashed=0;align=center;fontSize=8;fillColor=#c0f5a9;verticalLabelPosition=bottom;verticalAlign=top;shape=mxgraph.eip.content_enricher;" parent="1" vertex="1">
          <mxGeometry x="883" y="641" width="36" height="15" as="geometry" />
        </mxCell>
        <mxCell id="Yc7H-iH_WG85VqJQNrEK-91" value="" style="strokeWidth=2;outlineConnect=0;dashed=0;align=center;fontSize=8;shape=mxgraph.eip.message_translator;fillColor=#c0f5a9;verticalLabelPosition=bottom;verticalAlign=top;" parent="1" vertex="1">
          <mxGeometry x="883" y="661" width="36" height="16" as="geometry" />
        </mxCell>
        <mxCell id="Yc7H-iH_WG85VqJQNrEK-94" value="" style="strokeWidth=2;outlineConnect=0;dashed=0;align=center;fontSize=8;fillColor=#c0f5a9;verticalLabelPosition=bottom;verticalAlign=top;shape=mxgraph.eip.normalizer;" parent="1" vertex="1">
          <mxGeometry x="886" y="682" width="30" height="18" as="geometry" />
        </mxCell>
        <mxCell id="Yc7H-iH_WG85VqJQNrEK-95" value="Enricher" style="text;html=1;strokeColor=none;fillColor=none;align=center;verticalAlign=middle;whiteSpace=wrap;rounded=0;fontSize=10;" parent="1" vertex="1">
          <mxGeometry x="941.5" y="635" width="60" height="21" as="geometry" />
        </mxCell>
        <mxCell id="Yc7H-iH_WG85VqJQNrEK-96" value="Transformer" style="text;html=1;strokeColor=none;fillColor=none;align=center;verticalAlign=middle;whiteSpace=wrap;rounded=0;fontSize=10;" parent="1" vertex="1">
          <mxGeometry x="944.5" y="657" width="60" height="21" as="geometry" />
        </mxCell>
        <mxCell id="Yc7H-iH_WG85VqJQNrEK-97" value="Agrigator" style="text;html=1;strokeColor=none;fillColor=none;align=center;verticalAlign=middle;whiteSpace=wrap;rounded=0;fontSize=10;" parent="1" vertex="1">
          <mxGeometry x="947.5" y="680" width="60" height="21" as="geometry" />
        </mxCell>
        <mxCell id="Yc7H-iH_WG85VqJQNrEK-98" value="Orders" style="shape=cylinder3;whiteSpace=wrap;html=1;boundedLbl=1;backgroundOutline=1;size=15;fontSize=7;fillColor=#a20025;fontColor=#ffffff;strokeColor=#6F0000;" parent="1" vertex="1">
          <mxGeometry x="591" y="553.5" width="42" height="51" as="geometry" />
        </mxCell>
        <mxCell id="Yc7H-iH_WG85VqJQNrEK-100" value="&lt;div&gt;Sales&lt;/div&gt;&lt;div&gt;DB&lt;br&gt;&lt;/div&gt;" style="shape=cylinder3;whiteSpace=wrap;html=1;boundedLbl=1;backgroundOutline=1;size=15;fontSize=7;fillColor=#a20025;fontColor=#ffffff;strokeColor=#6F0000;" parent="1" vertex="1">
          <mxGeometry x="729" y="345" width="42" height="39" as="geometry" />
        </mxCell>
        <mxCell id="Yc7H-iH_WG85VqJQNrEK-102" value="DB Connector" style="rounded=1;whiteSpace=wrap;html=1;fillColor=#dae8fc;strokeColor=#6c8ebf;" parent="1" vertex="1">
          <mxGeometry x="582" y="477" width="120" height="18" as="geometry" />
        </mxCell>
        <mxCell id="Yc7H-iH_WG85VqJQNrEK-103" value="&lt;div&gt;Satilite&lt;br&gt;&lt;/div&gt;&lt;div&gt;Order&lt;/div&gt;&lt;div&gt;System&lt;br&gt;&lt;/div&gt;" style="whiteSpace=wrap;html=1;aspect=fixed;fontSize=7;" parent="1" vertex="1">
          <mxGeometry x="468" y="553.5" width="48" height="48" as="geometry" />
        </mxCell>
        <mxCell id="Yc7H-iH_WG85VqJQNrEK-104" value="&lt;div&gt;Sales&lt;/div&gt;&lt;div&gt;DB&lt;br&gt;&lt;/div&gt;" style="shape=cylinder3;whiteSpace=wrap;html=1;boundedLbl=1;backgroundOutline=1;size=15;fontSize=7;fillColor=#a20025;fontColor=#ffffff;strokeColor=#6F0000;" parent="1" vertex="1">
          <mxGeometry x="894" y="555" width="42" height="51" as="geometry" />
        </mxCell>
        <mxCell id="Yc7H-iH_WG85VqJQNrEK-105" value="&lt;div&gt;Customer&lt;/div&gt;&lt;div&gt;Experience&lt;br&gt;&lt;/div&gt;&lt;div&gt;System&lt;br&gt;&lt;/div&gt;" style="whiteSpace=wrap;html=1;aspect=fixed;fontSize=7;" parent="1" vertex="1">
          <mxGeometry x="792" y="549" width="48" height="48" as="geometry" />
        </mxCell>
      </root>
    </mxGraphModel>
  </diagram>
</mxfile>
